<svg id="kity_svg_6" xmlns="http://www.w3.org/2000/svg" xmlns:xlink="http://www.w3.org/1999/xlink" version="1.1" width="476" height="561" style="background: rgb(251, 251, 251); visibility: visible;" viewBox="0 0 476 561"><defs id="kity_defs_7"><linearGradient id="kity_linearGradient_17" x1="0" y1="0" x2="0" y2="1"><stop id="kity_stop_18" offset="0" stop-color="rgb(255, 255, 255)"></stop><stop id="kity_stop_19" offset="1" stop-color="rgb(204, 204, 204)"></stop></linearGradient><marker id="kity_marker_2" orient="auto" refX="6" refY="0" viewBox="-7 -7 14 14" markerWidth="7" markerHeight="7" markerUnits="userSpaceOnUse"><path id="kity_path_3" fill="rgb(115, 161, 191)" stroke="none" d="M6,0A6,6,0,1,1,-6,0A6,6,0,1,1,6,0"></path></marker></defs><g id="kity_g_8"><g id="minder1" text-rendering="optimize-speed"><g id="minder_connect_group1"><path id="kity_path_31" fill="none" stroke="rgb(115, 161, 191)" stroke-width="1" d="M74.00001143664122,334.50000747293234A177.5,126,0,0,1,251.50001143664122,208.50000747293234"></path><path id="kity_path_39" fill="none" stroke="rgb(115, 161, 191)" stroke-width="1" d="M74.00001143664122,334.50000747293234A181.5,111,0,0,0,255.50001143664122,445.50000747293234"></path><path id="kity_path_47" fill="none" stroke="rgb(115, 161, 191)" stroke-width="1" d="M326.5000114366412,208.50000747293234C341.5000114366412,208.50000747293234,341.5000114366412,45.50000747293234,356.5000114366412,45.50000747293234L421.5000114366412,45.50000747293234"></path><path id="kity_path_55" fill="none" stroke="rgb(115, 161, 191)" stroke-width="1" d="M326.5000114366412,208.50000747293234C341.0000114366412,208.50000747293234,341.0000114366412,114.50000747293234,355.5000114366412,114.50000747293234L436.5000114366412,114.50000747293234"></path><path id="kity_path_63" fill="none" stroke="rgb(115, 161, 191)" stroke-width="1" d="M326.5000114366412,208.50000747293234C342.5000114366412,208.50000747293234,342.5000114366412,179.50000747293234,358.5000114366412,179.50000747293234L437.5000114366412,179.50000747293234"></path><path id="kity_path_71" fill="none" stroke="rgb(115, 161, 191)" stroke-width="1" d="M326.5000114366412,208.50000747293234C341.5000114366412,208.50000747293234,341.5000114366412,237.50000747293234,356.5000114366412,237.50000747293234L407.5000114366412,237.50000747293234"></path><path id="kity_path_79" fill="none" stroke="rgb(115, 161, 191)" stroke-width="1" d="M326.5000114366412,208.50000747293234C336.5000114366412,208.50000747293234,336.5000114366412,311.50000747293234,346.5000114366412,311.50000747293234L426.5000114366412,311.50000747293234"></path><path id="kity_path_113" fill="none" stroke="rgb(115, 161, 191)" stroke-width="1" d="M325.5000114366412,445.50000747293234C341.0000114366412,445.50000747293234,341.0000114366412,459.50000747293234,356.5000114366412,459.50000747293234L451.5000114366412,459.50000747293234"></path><path id="kity_path_114" fill="none" stroke="rgb(115, 161, 191)" stroke-width="1" d="M325.5000114366412,445.50000747293234C340.0000114366412,445.50000747293234,340.0000114366412,385.50000747293234,354.5000114366412,385.50000747293234L443.5000114366412,385.50000747293234"></path><path id="kity_path_115" fill="none" stroke="rgb(115, 161, 191)" stroke-width="1" d="M325.5000114366412,445.50000747293234C342.5000114366412,445.50000747293234,342.5000114366412,541.5000074729323,359.5000114366412,541.5000074729323L456.5000114366412,541.5000074729323"></path></g><g id="minder_node1"><path id="node_outline1" fill="rgb(115, 161, 191)" stroke="rgb(115, 161, 191)" d="M25.500011436641216,314.50000747293234h97a5,5,0,0,1,5,5v30a5,5,0,0,1,-5,5h-97a5,5,0,0,1,-5,-5v-30a5,5,0,0,1,5,-5z" stroke-width="3"></path><g id="node_text1" fill="white"><text id="kity_text_22" text-rendering="inherit" font-size="16" dy=".8em" y="324.10000743716955" x="44.500011436641216">Alethea</text></g></g><g id="kity_g_14" display="none"><path id="kity_path_15" fill="rgba(0, 92, 153, 0.5)" stroke="none" d="M343.5000114366412,473.50000747293234h70v15h-70z"></path><path id="kity_path_16" fill="none" stroke="rgb(0, 76, 128)" d="M343.5000114366412,473.50000747293234L413.5000114366412,473.50000747293234" stroke-width="1"></path></g><g id="minder_node2" opacity="1"><g id="node_expander1" style="cursor: pointer;"><path id="kity_path_36" fill="white" stroke="gray" d="M252.50001444667578,208.50000559538603A6,6,0,1,1,240.50001444667578,208.50000559538603A6,6,0,1,1,252.50001444667578,208.50000559538603"></path><path id="kity_path_37" fill="none" stroke="gray" d="M242.00001444667578,208.50000559538603L251.00001444667578,208.50000559538603"></path></g><path id="node_outline2" fill="rgb(238, 243, 246)" stroke="rgb(115, 161, 191)" d="M256.50001484900713,195.50000559538603h67a3,3,0,0,1,3,3v20a3,3,0,0,1,-3,3h-67a3,3,0,0,1,-3,-3v-20a3,3,0,0,1,3,-3z" stroke-width="1"></path><g id="node_text2" fill="black"><text id="kity_text_33" text-rendering="inherit" font-size="14" dy=".8em" y="199.4000055640936" x="273.50001484900713">back</text></g></g><g id="minder_node3" opacity="1"><g id="node_expander2" style="cursor: pointer;"><path id="kity_path_44" fill="white" stroke="gray" d="M338.50001572817564,445.50000912696123A6,6,0,1,1,326.50001572817564,445.50000912696123A6,6,0,1,1,338.50001572817564,445.50000912696123"></path><path id="kity_path_45" fill="none" stroke="gray" d="M328.00001572817564,445.50000912696123L337.00001572817564,445.50000912696123"></path></g><path id="node_outline3" fill="rgb(238, 243, 246)" stroke="rgb(115, 161, 191)" d="M260.5000149086118,432.50000912696123h62a3,3,0,0,1,3,3v20a3,3,0,0,1,-3,3h-62a3,3,0,0,1,-3,-3v-20a3,3,0,0,1,3,-3z" stroke-width="1"></path><g id="node_text3" fill="black"><text id="kity_text_41" text-rendering="inherit" font-size="14" dy=".8em" y="436.4000090956688" x="277.5000149086118">font</text></g></g><g id="minder_node4" opacity="1"><g id="node_expander3" style="cursor: pointer;" display="none"><path id="kity_path_52" fill="white" stroke="gray" d="M366.50001614540815,31.500002957880497A6,6,0,1,1,354.50001614540815,31.500002957880497A6,6,0,1,1,366.50001614540815,31.500002957880497"></path><path id="kity_path_53" fill="none" stroke="gray"></path></g><path id="node_outline4" fill="none" stroke="none" d="M371.50001638382673,20.500002957880497h45a5,5,0,0,1,5,5v12a5,5,0,0,1,-5,5h-45a5,5,0,0,1,-5,-5v-12a5,5,0,0,1,5,-5z" stroke-width="3"></path><g id="node_text4" fill="black"><text id="kity_text_49" text-rendering="inherit" font-size="12" dy=".8em" y="23.700002931058407" x="376.50001638382673">article</text></g></g><g id="minder_node5" opacity="1"><g id="node_expander4" style="cursor: pointer;" display="none"><path id="kity_path_60" fill="white" stroke="gray" d="M365.500016130507,100.50000398606062A6,6,0,1,1,353.500016130507,100.50000398606062A6,6,0,1,1,365.500016130507,100.50000398606062"></path><path id="kity_path_61" fill="none" stroke="gray"></path></g><path id="node_outline5" fill="none" stroke="none" d="M370.50001636892557,89.50000398606062h61a5,5,0,0,1,5,5v12a5,5,0,0,1,-5,5h-61a5,5,0,0,1,-5,-5v-12a5,5,0,0,1,5,-5z" stroke-width="3"></path><g id="node_text5" fill="black"><text id="kity_text_57" text-rendering="inherit" font-size="12" dy=".8em" y="92.70000395923853" x="375.50001636892557">category</text></g></g><g id="minder_node6" opacity="1"><g id="node_expander5" style="cursor: pointer;" display="none"><path id="kity_path_68" fill="white" stroke="gray" d="M368.5000161752105,165.5000049546361A6,6,0,1,1,356.5000161752105,165.5000049546361A6,6,0,1,1,368.5000161752105,165.5000049546361"></path><path id="kity_path_69" fill="none" stroke="gray"></path></g><path id="node_outline6" fill="none" stroke="none" d="M373.50001641362906,154.5000049546361h59a5,5,0,0,1,5,5v12a5,5,0,0,1,-5,5h-59a5,5,0,0,1,-5,-5v-12a5,5,0,0,1,5,-5z" stroke-width="3"></path><g id="node_text6" fill="black"><text id="kity_text_65" text-rendering="inherit" font-size="12" dy=".8em" y="157.700004927814" x="378.50001641362906">keyword</text></g></g><g id="minder_node7" opacity="1"><g id="node_expander6" style="cursor: pointer;" display="none"><path id="kity_path_76" fill="white" stroke="gray" d="M366.50001614540815,223.50000581890345A6,6,0,1,1,354.50001614540815,223.50000581890345A6,6,0,1,1,366.50001614540815,223.50000581890345"></path><path id="kity_path_77" fill="none" stroke="gray"></path></g><path id="node_outline7" fill="none" stroke="none" d="M371.50001638382673,212.50000581890345h31a5,5,0,0,1,5,5v12a5,5,0,0,1,-5,5h-31a5,5,0,0,1,-5,-5v-12a5,5,0,0,1,5,-5z" stroke-width="3"></path><g id="node_text7" fill="black"><text id="kity_text_73" text-rendering="inherit" font-size="12" dy=".8em" y="215.70000579208136" x="376.50001638382673">link</text></g></g><g id="minder_node8" opacity="1"><g id="node_expander7" style="cursor: pointer;" display="none"><path id="kity_path_84" fill="white" stroke="gray" d="M356.50001599639654,297.5000069215894A6,6,0,1,1,344.50001599639654,297.5000069215894A6,6,0,1,1,356.50001599639654,297.5000069215894"></path><path id="kity_path_85" fill="none" stroke="gray"></path></g><path id="node_outline8" fill="none" stroke="none" d="M361.5000162348151,286.5000069215894h60a5,5,0,0,1,5,5v12a5,5,0,0,1,-5,5h-60a5,5,0,0,1,-5,-5v-12a5,5,0,0,1,5,-5z" stroke-width="3"></path><g id="node_text8" fill="black"><text id="kity_text_81" text-rendering="inherit" font-size="12" dy=".8em" y="289.7000068947673" x="366.5000162348151">分支主题</text></g></g><g id="kity_g_12" display="none"><path id="kity_path_13" fill="none" stroke="rgb(66, 94, 112)" d="M348.5000114366412,446.50000747293234h60a5,5,0,0,1,5,5v12a5,5,0,0,1,-5,5h-60a5,5,0,0,1,-5,-5v-12a5,5,0,0,1,5,-5z" stroke-width="5"></path></g><g id="minder_node9" opacity="1"><g id="node_expander8" style="cursor: pointer;" display="none"><path id="kity_path_92" fill="white" stroke="gray" d="M366.50001614540815,445.50000912696123A6,6,0,1,1,354.50001614540815,445.50000912696123A6,6,0,1,1,366.50001614540815,445.50000912696123"></path><path id="kity_path_93" fill="none" stroke="gray"></path></g><path id="node_outline9" fill="none" stroke="none" d="M371.50001638382673,434.50000912696123h75a5,5,0,0,1,5,5v12a5,5,0,0,1,-5,5h-75a5,5,0,0,1,-5,-5v-12a5,5,0,0,1,5,-5z" stroke-width="3"></path><g id="node_text9" fill="black"><text id="kity_text_89" text-rendering="inherit" font-size="12" dy=".8em" y="437.70000910013914" x="376.50001638382673">recent post</text></g></g><g id="minder_node10" opacity="1"><g id="node_expander9" style="cursor: pointer;" display="none"><path id="kity_path_101" fill="white" stroke="gray" d="M364.50001611560583,371.5000080242753A6,6,0,1,1,352.50001611560583,371.5000080242753A6,6,0,1,1,364.50001611560583,371.5000080242753"></path><path id="kity_path_102" fill="none" stroke="gray"></path></g><path id="node_outline10" fill="none" stroke="none" d="M369.5000163540244,360.5000080242753h69a5,5,0,0,1,5,5v12a5,5,0,0,1,-5,5h-69a5,5,0,0,1,-5,-5v-12a5,5,0,0,1,5,-5z" stroke-width="3"></path><g id="node_text10" fill="black"><text id="kity_text_98" text-rendering="inherit" font-size="12" dy=".8em" y="363.7000079974532" x="374.5000163540244">top article</text></g></g><g id="minder_node11" opacity="1"><g id="node_expander10" style="cursor: pointer;" display="none"><path id="kity_path_111" fill="white" stroke="gray" d="M369.50001619011164,527.5000103488564A6,6,0,1,1,357.50001619011164,527.5000103488564A6,6,0,1,1,369.50001619011164,527.5000103488564"></path><path id="kity_path_112" fill="none" stroke="gray"></path></g><path id="node_outline11" fill="none" stroke="none" d="M374.5000164285302,516.5000103488564h77a5,5,0,0,1,5,5v12a5,5,0,0,1,-5,5h-77a5,5,0,0,1,-5,-5v-12a5,5,0,0,1,5,-5z" stroke-width="3"></path><g id="node_text11" fill="black"><text id="kity_text_108" text-rendering="inherit" font-size="12" dy=".8em" y="519.7000103220344" x="379.5000164285302">month post</text></g></g></g></g></svg>